<svg class="svgicon svgicon-menu" xmlns="http://www.w3.org/2000/svg" width="20" height="16" viewBox="0 0 20 16"><path d="M0 4.8608V12.8C0 13.6487 0.337142 14.4626 0.937258 15.0627C1.53737 15.6629 2.35131 16 3.2 16H16C16.8487 16 17.6626 15.6629 18.2627 15.0627C18.8629 14.4626 19.2 13.6487 19.2 12.8V3.2C19.2 2.35131 18.8629 1.53737 18.2627 0.937258C17.6626 0.337142 16.8487 0 16 0H3.2C2.35131 0 1.53737 0.337142 0.937258 0.937258C0.337142 1.53737 0 2.35131 0 3.2V4.8608ZM3.2 1.6H16C16.4243 1.6 16.8313 1.76857 17.1314 2.06863C17.4314 2.36869 17.6 2.77565 17.6 3.2V4.384L9.6 8.6912L1.6 4.384V3.2C1.6 2.77565 1.76857 2.36869 2.06863 2.06863C2.36869 1.76857 2.77565 1.6 3.2 1.6V1.6ZM1.6 6.2016L9.2208 10.304C9.33735 10.3667 9.46764 10.3996 9.6 10.3996C9.73236 10.3996 9.86265 10.3667 9.9792 10.304L17.6 6.2016V12.8C17.6 13.2243 17.4314 13.6313 17.1314 13.9314C16.8313 14.2314 16.4243 14.4 16 14.4H3.2C2.77565 14.4 2.36869 14.2314 2.06863 13.9314C1.76857 13.6313 1.6 13.2243 1.6 12.8V6.2016Z"></path></svg>