<svg class="svgicon svgicon-password-hidden" xmlns="http://www.w3.org/2000/svg" width="22" height="18" viewBox="0 0 22 18"><path d="M5.58957 5.0398C4.07853 6.21377 2.86921 7.63095 2.14978 8.57012L2.14571 8.57542C2.05128 8.697 2 8.84655 2 9.0005C2 9.15445 2.05126 9.30401 2.14569 9.42559L2.14952 9.43052C2.94704 10.4707 4.33642 12.0864 6.06486 13.3136C6.51518 13.6334 6.62104 14.2576 6.3013 14.7079C5.98156 15.1583 5.35731 15.2641 4.90699 14.9444C2.94675 13.5525 1.41687 11.7617 0.564057 10.6497C0.198436 10.1777 0 9.59759 0 9.0005C0 8.4035 0.198376 7.82346 0.563892 7.35152C1.33772 6.3416 2.66515 4.77919 4.36253 3.46045C6.04997 2.14942 8.20538 1 10.6129 1C12.7753 1 14.7311 1.92709 16.3226 3.05913C16.7726 3.37926 16.8779 4.0036 16.5578 4.45364C16.2377 4.90368 15.6133 5.009 15.1633 4.68887C13.7547 3.68691 12.2026 3 10.6129 3C8.83847 3 7.11188 3.85707 5.58957 5.0398Z"/><path d="M19.32 0.292893C19.7106 0.683417 19.7106 1.31658 19.32 1.70711L13.5515 7.47566C13.5212 7.51712 13.4874 7.55677 13.4499 7.59419L9.20695 11.8362C9.17071 11.8724 9.13237 11.9053 9.09233 11.9348L3.32003 17.7071C2.92951 18.0976 2.29634 18.0976 1.90582 17.7071C1.51529 17.3166 1.51529 16.6834 1.90582 16.2929L7.16514 11.0336C7.0718 10.8764 6.98914 10.7127 6.91787 10.5436C6.71288 10.0569 6.60627 9.53456 6.60419 9.00654C6.6021 8.47852 6.70458 7.9553 6.90571 7.46708C7.10684 6.97886 7.40264 6.53529 7.77606 6.16196C8.14948 5.78864 8.59311 5.49293 9.08138 5.29192C9.56965 5.0909 10.0929 4.98855 10.6209 4.99076C11.1489 4.99297 11.6713 5.09971 12.1579 5.30481C12.3267 5.37599 12.4901 5.45853 12.647 5.55171L17.9058 0.292893C18.2963 -0.0976311 18.9295 -0.0976311 19.32 0.292893ZM11.136 7.06273C10.9658 7.01579 10.7898 6.99148 10.6125 6.99074C10.3485 6.98964 10.0869 7.04081 9.84277 7.14132C9.59864 7.24183 9.37682 7.38968 9.19011 7.57634C9.0034 7.76301 8.8555 7.98479 8.75493 8.2289C8.65437 8.47301 8.60313 8.73462 8.60417 8.99863C8.60487 9.17607 8.62918 9.35223 8.67616 9.52255L11.136 7.06273ZM17.4891 5.27985C17.8868 4.89666 18.5199 4.90846 18.9031 5.30619C19.5269 5.95367 20.1137 6.63577 20.6608 7.34927C21.0265 7.82116 21.2252 8.40123 21.2255 8.99835C21.2258 9.59565 21.0275 10.1761 20.662 10.6484C19.8882 11.6583 18.5607 13.2208 16.8633 14.5396C15.1759 15.8506 13.0205 17 10.6129 17L10.6084 17C9.83595 16.9965 9.06797 16.8828 8.32763 16.6624C7.7983 16.5049 7.49692 15.948 7.65449 15.4187C7.81205 14.8894 8.36889 14.588 8.89822 14.7456C9.45556 14.9115 10.0337 14.9971 10.6152 15C12.3888 14.9993 14.1146 14.1424 15.6363 12.9602C17.1473 11.7862 18.3566 10.369 19.0761 9.42988L19.0798 9.42504C19.1743 9.30324 19.2255 9.15346 19.2255 8.99931C19.2254 8.84516 19.174 8.69543 19.0794 8.57372L19.0753 8.56838C18.5734 7.91372 18.0351 7.28786 17.4628 6.69381C17.0796 6.29608 17.0914 5.66303 17.4891 5.27985Z"/></svg>
