<svg class="svgicon svgicon-password-show" xmlns="http://www.w3.org/2000/svg" width="24" height="18" viewBox="0 0 24 18"><path d="M6.15744 4.36125C4.41713 5.71335 3.02656 7.34345 2.20048 8.42183L2.19637 8.4272L2.19635 8.42719C2.06908 8.59101 2 8.79255 2 9C2 9.20745 2.06908 9.40899 2.19635 9.57281L2.2005 9.57816L2.20048 9.57817C3.02656 10.6565 4.41713 12.2867 6.15744 13.6388C7.90902 14.9996 9.91289 16 11.9861 16C14.0592 16 16.0631 14.9996 17.8147 13.6388C19.5549 12.2867 20.9454 10.6567 21.7715 9.57831C22.0382 9.23003 22.0389 8.77166 21.7713 8.42136C20.9452 7.34298 19.5547 5.71315 17.8147 4.36125C16.0631 3.0004 14.0592 2 11.9861 2C9.91289 2 7.90902 3.0004 6.15744 4.36125ZM4.9304 2.78189C6.8471 1.29275 9.2798 0 11.9861 0C14.6923 0 17.125 1.29275 19.0417 2.78189C20.9697 4.2798 22.4791 6.05655 23.3593 7.2056L23.3599 7.20636C24.1755 8.27316 24.1761 9.72778 23.3594 10.7943L23.3593 10.7944C22.4791 11.9435 20.9697 13.7202 19.0417 15.2181C17.125 16.7073 14.6923 18 11.9861 18C9.2798 18 6.8471 16.7073 4.9304 15.2181C3.00376 13.7212 1.4951 11.9459 0.614622 10.7968C0.216228 10.2826 0 9.65055 0 9C0 8.34944 0.21624 7.71736 0.614655 7.20316C1.49513 6.05403 3.00378 4.27874 4.9304 2.78189ZM11.986 6.57143C10.6448 6.57143 9.55748 7.65874 9.55748 9C9.55748 10.3413 10.6448 11.4286 11.986 11.4286C13.3273 11.4286 14.4146 10.3413 14.4146 9C14.4146 7.65874 13.3273 6.57143 11.986 6.57143ZM7.55748 9C7.55748 6.55417 9.54022 4.57143 11.986 4.57143C14.4319 4.57143 16.4146 6.55417 16.4146 9C16.4146 11.4458 14.4319 13.4286 11.986 13.4286C9.54022 13.4286 7.55748 11.4458 7.55748 9Z"/></svg>