<svg class="svgicon svgicon-member" xmlns="http://www.w3.org/2000/svg" width="24" height="24" viewBox="0 0 24 24"><path d="M11.9996 0C8.82968 0.0404258 5.80097 1.31765 3.55931 3.55931C1.31765 5.80097 0.0404258 8.82968 0 11.9996C0.0148182 13.8462 0.45565 15.6646 1.28817 17.3129C2.12069 18.9613 3.32244 20.3953 4.79984 21.5033V21.5993H4.91984C6.95159 23.1562 9.43991 24 11.9996 24C14.5593 24 17.0476 23.1562 19.0794 21.5993H19.1994V21.5033C20.6768 20.3953 21.8785 18.9613 22.7111 17.3129C23.5436 15.6646 23.9844 13.8462 23.9992 11.9996C23.9588 8.82968 22.6816 5.80097 20.4399 3.55931C18.1983 1.31765 15.1695 0.0404258 11.9996 0ZM7.28376 20.3153C7.45894 19.5131 7.90312 18.7949 8.54262 18.2798C9.18212 17.7647 9.9785 17.4837 10.7996 17.4834H13.1996C14.0207 17.4837 14.8171 17.7647 15.4566 18.2798C16.0961 18.7949 16.5403 19.5131 16.7155 20.3153C15.2861 21.1563 13.658 21.5997 11.9996 21.5997C10.3413 21.5997 8.71308 21.1563 7.28376 20.3153ZM18.7314 18.7674C18.275 17.6766 17.5064 16.7449 16.5222 16.0895C15.538 15.4341 14.382 15.0841 13.1996 15.0835H10.7996C9.61718 15.0841 8.46125 15.4341 7.47705 16.0895C6.49285 16.7449 5.72426 17.6766 5.26783 18.7674C4.36865 17.883 3.65256 16.8301 3.16047 15.6689C2.66838 14.5076 2.40994 13.2608 2.39992 11.9996C2.43105 9.46328 3.45243 7.03961 5.24602 5.24602C7.03961 3.45243 9.46328 2.43105 11.9996 2.39992C14.5359 2.43105 16.9596 3.45243 18.7532 5.24602C20.5468 7.03961 21.5682 9.46328 21.5993 11.9996C21.5893 13.2608 21.3308 14.5076 20.8387 15.6689C20.3467 16.8301 19.6306 17.883 18.7314 18.7674Z"/><path d="M11.9997 4.79983C11.3653 4.78506 10.7345 4.89911 10.1455 5.13509C9.55648 5.37108 9.02144 5.72409 8.57276 6.17277C8.12407 6.62146 7.77106 7.15649 7.53508 7.74552C7.29909 8.33454 7.18504 8.96531 7.19982 9.59968C7.18504 10.234 7.29909 10.8648 7.53508 11.4538C7.77106 12.0429 8.12407 12.5779 8.57276 13.0266C9.02144 13.4753 9.55648 13.8283 10.1455 14.0643C10.7345 14.3002 11.3653 14.4143 11.9997 14.3995C12.634 14.4143 13.2648 14.3002 13.8538 14.0643C14.4428 13.8283 14.9779 13.4753 15.4266 13.0266C15.8753 12.5779 16.2283 12.0429 16.4643 11.4538C16.7002 10.8648 16.8143 10.234 16.7995 9.59968C16.8143 8.96531 16.7002 8.33454 16.4643 7.74552C16.2283 7.15649 15.8753 6.62146 15.4266 6.17277C14.9779 5.72409 14.4428 5.37108 13.8538 5.13509C13.2648 4.89911 12.634 4.78506 11.9997 4.79983ZM11.9997 11.9996C11.6804 12.015 11.3615 11.9635 11.0633 11.8484C10.7651 11.7332 10.4944 11.557 10.2684 11.331C10.0424 11.105 9.86611 10.8342 9.75097 10.536C9.63582 10.2379 9.58431 9.91893 9.59974 9.59968C9.58431 9.28043 9.63582 8.96148 9.75097 8.66332C9.86611 8.36516 10.0424 8.09438 10.2684 7.86837C10.4944 7.64236 10.7651 7.46613 11.0633 7.35098C11.3615 7.23583 11.6804 7.18432 11.9997 7.19976C12.3189 7.18432 12.6379 7.23583 12.936 7.35098C13.2342 7.46613 13.505 7.64236 13.731 7.86837C13.957 8.09438 14.1332 8.36516 14.2484 8.66332C14.3635 8.96148 14.415 9.28043 14.3996 9.59968C14.415 9.91893 14.3635 10.2379 14.2484 10.536C14.1332 10.8342 13.957 11.105 13.731 11.331C13.505 11.557 13.2342 11.7332 12.936 11.8484C12.6379 11.9635 12.3189 12.015 11.9997 11.9996Z"/></svg>
