<svg class="svgicon svgicon-qris" xmlns="http://www.w3.org/2000/svg" width="24" height="24" viewBox="0 0 24 24"><path d="M0 10.6667H10.6607V0H0V10.6667ZM2.66519 2.66667H7.99556V8H2.66519V2.66667ZM0 24H10.6607V13.3333H0V24ZM2.66519 16H7.99556V21.3333H2.66519V16ZM13.3259 0V10.6667H23.9867V0H13.3259ZM21.3215 8H15.9911V2.66667H21.3215V8ZM13.3393 13.3333H16.0044V16H13.3393V13.3333ZM16.0044 16H18.6696V18.6667H16.0044V16ZM13.3393 18.6667H16.0044V21.3333H13.3393V18.6667ZM18.6696 18.6667H21.3348V21.3333H18.6696V18.6667ZM21.3348 21.3333H24V24H21.3348V21.3333ZM16.0044 21.3333H18.6696V24H16.0044V21.3333ZM18.6696 13.3333H21.3348V16H18.6696V13.3333ZM21.3348 16H24V18.6667H21.3348V16Z"/></svg>
