<svg class="svgicon svgicon-wifi-coin" width="17" height="13" viewBox="0 0 17 13"><path d="M12.6045 7.62474C12.6656 7.68304 12.7146 7.75289 12.7488 7.83026C12.7829 7.90764 12.8015 7.99103 12.8035 8.07565C12.8055 8.16026 12.7908 8.24444 12.7603 8.32334C12.7298 8.40225 12.6841 8.47433 12.6259 8.53545C12.5674 8.59914 12.4965 8.65008 12.4176 8.6851C12.3387 8.72012 12.2535 8.73847 12.1673 8.73902C12.0007 8.73621 11.841 8.6713 11.7194 8.55688C10.8322 7.70421 9.65173 7.2283 8.42394 7.2283C7.19616 7.2283 6.01571 7.70421 5.12852 8.55688C5.0676 8.61527 4.99583 8.66103 4.9173 8.69156C4.83877 8.72208 4.75503 8.73677 4.67085 8.73478C4.58667 8.73279 4.50371 8.71416 4.4267 8.67996C4.34969 8.64576 4.28014 8.59665 4.22202 8.53545C4.16389 8.47424 4.11834 8.40214 4.08796 8.32325C4.05757 8.24436 4.04296 8.16023 4.04494 8.07566C4.04692 7.99109 4.06546 7.90774 4.0995 7.83038C4.13354 7.75301 4.18242 7.68313 4.24335 7.62474C5.37 6.54532 6.86709 5.94312 8.42394 5.94312C9.9808 5.94312 11.4779 6.54532 12.6045 7.62474ZM8.42394 0.799802C5.50424 0.787086 2.69799 1.93481 0.617315 3.99263C0.49569 4.11198 0.426239 4.27498 0.424239 4.44577C0.422239 4.61656 0.487854 4.78115 0.60665 4.90334C0.725446 5.02553 0.887692 5.0953 1.0577 5.09731C1.2277 5.09932 1.39153 5.0334 1.51316 4.91405C3.36032 3.10002 5.84084 2.08434 8.42394 2.08434C11.0071 2.08434 13.4876 3.10002 15.3347 4.91405C15.4564 5.02847 15.616 5.09339 15.7827 5.09619C15.9101 5.09653 16.0347 5.05862 16.1406 4.98733C16.2464 4.91605 16.3287 4.81463 16.3768 4.69607C16.4249 4.57752 16.4367 4.44723 16.4107 4.3219C16.3846 4.19658 16.3219 4.08192 16.2306 3.99263C14.1499 1.93481 11.3437 0.787086 8.42394 0.799802ZM8.42394 10.6569C8.21301 10.6569 8.00682 10.7197 7.83144 10.8374C7.65606 10.9552 7.51937 11.1225 7.43865 11.3183C7.35793 11.514 7.33681 11.7295 7.37796 11.9373C7.41911 12.1451 7.52068 12.336 7.66983 12.4859C7.81898 12.6357 8.00901 12.7378 8.21588 12.7791C8.42276 12.8205 8.63719 12.7992 8.83207 12.7181C9.02694 12.637 9.1935 12.4997 9.31069 12.3235C9.42788 12.1473 9.49042 11.9402 9.49042 11.7283C9.49042 11.4441 9.37806 11.1716 9.17806 10.9707C8.97806 10.7697 8.70679 10.6569 8.42394 10.6569Z"/></svg>