<svg width="120" height="36" viewBox="0 0 120 36" fill="none" xmlns="http://www.w3.org/2000/svg">
<g clip-path="url(#clip0_2_38)">
<path d="M23.2364 24.3491C23.4327 24.1527 23.6291 24.0873 23.8255 24.0218C24.0218 24.0218 24.2836 24.0218 24.48 24.1527C24.6764 24.2182 24.9382 24.3491 25.1345 24.5455C25.3309 24.6764 25.5273 24.8727 25.7236 25.0691L27.2945 26.64C27.4255 26.7709 27.4909 26.9018 27.5564 27.0982C27.6218 27.2945 27.6218 27.4909 27.6218 27.6873C27.6218 27.8836 27.5564 28.1455 27.4909 28.3418C27.4255 28.5382 27.2945 28.7345 27.1636 28.8655L20.2909 35.6073C20.16 35.7382 20.0291 35.8036 19.7673 35.8691C19.5709 35.9345 19.3091 36 19.1127 36C18.9164 36 18.6545 36 18.4582 35.9345C18.2618 35.8691 18.1309 35.8036 18 35.6727L13.4182 31.0909C13.2873 30.96 13.2218 30.8291 13.1564 30.6327C13.0909 30.4364 13.0909 30.24 13.0909 29.9782C13.0909 29.7818 13.1564 29.52 13.2218 29.3236C13.2873 29.1273 13.3527 28.9309 13.4836 28.8L20.3564 21.9273C20.4873 21.7964 20.6182 21.7309 20.88 21.6655C21.0764 21.6 21.3382 21.5345 21.5345 21.5345C21.7309 21.5345 21.9927 21.5345 22.1891 21.6C22.3855 21.6655 22.5818 21.7309 22.6473 21.8618L23.3018 22.5164L16.2327 29.7818L19.3745 32.9236L24.2836 28.0145C24.2836 27.9491 24.2836 27.8836 24.2182 27.8182C24.1527 27.7527 24.1527 27.6873 24.0873 27.5564C23.8909 27.36 23.6291 27.2945 23.3018 27.4255L20.0291 30.7636L18.3927 29.1273L23.2364 24.3491Z" fill="white"/>
<path d="M27.4909 24.8727L34.0364 18.3273C34.1018 18.1964 34.1673 18.0655 34.1018 18C34.1018 17.9346 34.0364 17.8036 33.9709 17.6727C33.84 17.6073 33.7745 17.5418 33.6436 17.4764C33.5127 17.4764 33.3818 17.4764 33.2509 17.5418L27.6218 23.1709C27.4909 23.2364 27.36 23.3018 27.2291 23.3673C27.0982 23.4327 26.9018 23.4982 26.7709 23.4982C26.5745 23.4982 26.4436 23.4982 26.3127 23.4982C26.1818 23.4982 26.0509 23.4327 25.92 23.3673L24.0873 21.6C23.8909 21.4036 23.76 21.2073 23.5636 21.0109C23.4327 20.8146 23.3018 20.5527 23.2364 20.2909C23.1709 20.0291 23.1055 19.8327 23.1709 19.5709C23.2364 19.3091 23.3018 19.1127 23.4982 18.9164L31.4182 10.9964L33.1855 12.7636L26.64 19.3091C26.5745 19.44 26.5091 19.5709 26.5745 19.7018C26.5745 19.7673 26.64 19.8982 26.7055 20.0291C26.9673 20.2909 27.1636 20.2909 27.4255 20.0946L33.0545 14.4655C33.1855 14.3346 33.3818 14.2036 33.6436 14.2036C33.9055 14.2036 34.1018 14.2036 34.3636 14.3346C34.6255 14.4 34.8218 14.5309 35.0836 14.7273C35.3455 14.8582 35.5418 15.0546 35.7382 15.2509L36.6545 16.1673C36.8509 16.3636 36.9818 16.4946 37.1782 16.7564C37.3745 16.9527 37.5055 17.1491 37.5709 17.4109C37.6364 17.6073 37.7018 17.8691 37.7018 18.0655C37.7018 18.3273 37.5709 18.5236 37.3091 18.72L29.2582 26.64L27.4909 24.8727Z" fill="white"/>
<path d="M12.5018 13.8764L16.6255 18L23.4982 11.1273C23.6945 10.9309 23.76 10.8 23.6945 10.6036C23.6291 10.4727 23.5636 10.2764 23.3673 10.1455L19.1127 5.89091C18.9164 5.69455 18.72 5.56364 18.5891 5.56364C18.3927 5.49818 18.2618 5.56364 18.0655 5.76L7.92 15.84L4.90909 12.8291L17.0836 0.654545C17.28 0.458182 17.5418 0.327273 17.9345 0.196364C18.2618 0.0654546 18.6545 0 19.0473 0C19.44 0 19.8327 0 20.16 0.0654545C20.4873 0.130909 20.8145 0.261818 20.9455 0.458182L28.7345 8.24727C28.9309 8.44364 29.0618 8.70545 29.1273 9.03273C29.1927 9.36 29.2582 9.75273 29.1927 10.1455C29.1927 10.5382 29.1273 10.9309 28.9964 11.2582C28.8654 11.5855 28.7345 11.9127 28.5382 12.0436L16.3636 24.3491L9.16363 17.1491L12.5018 13.8764Z" fill="#EF4538"/>
<path d="M7.71539 18.7353L4.38303 22.0677L11.5106 29.1952L14.843 25.8629L7.71539 18.7353Z" fill="#EF4538"/>
<path d="M0 17.6727L3.07636 20.7491L6.41455 17.4109L3.33818 14.3345L0 17.6727ZM2.02909 16.56V16.2982C2.02909 16.2982 2.02909 16.2982 2.09455 16.2982H2.35636L2.02909 16.56C2.09455 16.6255 2.02909 16.6255 2.02909 16.56ZM2.02909 17.0182C1.96364 17.0182 2.09455 16.8218 2.09455 16.8218L2.61818 16.2982C2.68364 16.2327 2.74909 16.2327 2.74909 16.2982L3.20727 16.6909L3.14182 17.2145L3.07636 17.28L2.48727 17.4109L2.02909 17.0182ZM2.29091 18.7855C2.29091 18.7855 2.22545 18.7855 2.29091 18.7855H1.96364V18.5236L2.29091 18.7855ZM2.61818 18.72C2.55273 18.7855 2.48727 18.7855 2.42182 18.72L1.96364 18.2618C1.89818 18.1964 1.96364 18.1309 1.96364 18.0655L2.42182 17.6073L3.01091 17.6727C3.01091 17.6727 3.01091 17.6727 3.01091 17.7382L3.07636 18.2618L2.61818 18.72ZM4.51636 18.3927V18.6545H4.25455L4.51636 18.3927C4.51636 18.3273 4.51636 18.3273 4.51636 18.3927ZM4.45091 18C4.51636 18.0655 4.51636 18.1309 4.45091 18.1964L3.92727 18.6545C3.86182 18.72 3.79636 18.72 3.73091 18.6545L3.33818 18.1964L3.46909 17.6727C3.46909 17.6727 3.46909 17.6727 3.46909 17.6073C3.46909 17.6073 3.46909 17.6073 3.53455 17.6073L4.05818 17.5418L4.45091 18ZM4.51636 16.8873L4.05818 17.3455L3.53455 17.28H3.46909L3.40364 17.2145L3.33818 16.6909L3.79636 16.2327C3.86182 16.1673 3.92727 16.2982 3.92727 16.3636L4.38545 16.8218C4.51636 16.8218 4.58182 16.8218 4.51636 16.8873ZM4.58182 16.1673L4.51636 16.4945C4.51636 16.4945 4.58182 16.4291 4.45091 16.56L4.12364 16.2327C4.25455 16.1018 4.18909 16.1673 4.18909 16.1673H4.58182Z" fill="#EF4538"/>
<path d="M55.8982 11.2582L57.6 19.3091L58.7127 11.1273H61.7891L59.8254 24.8727L55.7672 24.7418L54.5891 19.7673L53.9345 24.8727L49.8763 24.7418L46.6691 11.2582L49.8109 11.1273L51.5782 19.3091L52.8218 11.1273L55.8982 11.2582Z" fill="white"/>
<path d="M63.1636 11.3236L66.3055 11.1927L66.24 24.8727L63.1636 24.8073V11.3236Z" fill="white"/>
<path d="M71.0836 19.3746L71.2145 24.8727L68.0727 24.7418L68.0073 11.2582L75.7309 11.1927L75.6 14.6618L71.0182 14.5964V16.1018L74.5527 16.0364L74.6836 19.1127L71.0836 19.3746Z" fill="white"/>
<path d="M77.4327 11.3236L80.5745 11.1927L80.509 24.8727L77.4327 24.8073V11.3236Z" fill="white"/>
<path d="M93.1418 24.6109L87.7745 24.7418L85.4836 22.4509L85.4182 14.2691L87.5127 11.3891L93.1418 11.1927L93.0109 14.6618L88.4291 14.7927L88.6254 21.6L93.1418 21.4036V24.6109Z" fill="white"/>
<path d="M97.2 24.7418L94.9091 22.4509V14.2691L97.0036 11.3891L101.978 11.2582L104.269 13.5491L104.335 21.7309L102.24 24.6109L97.2 24.7418ZM98.0509 21.4036L101.258 21.2727L101.062 14.6618L97.8545 14.7927L98.0509 21.4036Z" fill="white"/>
<path d="M106.036 11.2582L109.178 11.1273L109.047 24.8073L105.971 24.7418L106.036 11.2582Z" fill="white"/>
<path d="M114.022 18.5891L114.087 24.8727L110.945 24.7418L110.88 11.2582L113.956 11.1927L116.444 17.9345V11.2582L119.585 11.1273L119.454 24.8073L116.378 24.7418L114.022 18.5891Z" fill="white"/>
</g>
<defs>
<clipPath id="clip0_2_38">
<rect width="119.585" height="36" fill="white"/>
</clipPath>
</defs>
</svg>
