<svg viewBox="0 0 78.7 36">
<path fill="#FFFFFF" d="M23.3,24.3c0.2-0.2,0.4-0.3,0.6-0.3c0.2,0,0.5,0,0.7,0.1c0.2,0.1,0.5,0.2,0.7,0.4c0.2,0.1,0.4,0.3,0.6,0.5
	l1.6,1.6c0.1,0.1,0.2,0.3,0.3,0.5c0.1,0.2,0.1,0.4,0.1,0.6c0,0.2-0.1,0.5-0.1,0.7c-0.1,0.2-0.2,0.4-0.3,0.5l-6.9,6.7
	c-0.1,0.1-0.3,0.2-0.5,0.3c-0.2,0.1-0.5,0.1-0.7,0.1c-0.2,0-0.5,0-0.7-0.1c-0.2-0.1-0.3-0.1-0.5-0.3l-4.6-4.6
	c-0.1-0.1-0.2-0.3-0.3-0.5c-0.1-0.2-0.1-0.4-0.1-0.7c0-0.2,0.1-0.5,0.1-0.7c0.1-0.2,0.1-0.4,0.3-0.5l6.9-6.9
	c0.1-0.1,0.3-0.2,0.5-0.3c0.2-0.1,0.5-0.1,0.7-0.1c0.2,0,0.5,0,0.7,0.1s0.4,0.1,0.5,0.3l0.7,0.7l-7.1,7.3l3.1,3.1l4.9-4.9
	c0-0.1,0-0.1-0.1-0.2c-0.1-0.1-0.1-0.1-0.1-0.3c-0.2-0.2-0.5-0.3-0.8-0.1l-3.3,3.3l-1.6-1.6L23.3,24.3z"/>
<path fill="#FFFFFF" d="M27.6,24.9l6.5-6.5c0.1-0.1,0.1-0.3,0.1-0.3c0-0.1-0.1-0.2-0.1-0.3c-0.1-0.1-0.2-0.1-0.3-0.2
	c-0.1,0-0.3,0-0.4,0.1l-5.6,5.6c-0.1,0.1-0.3,0.1-0.4,0.2c-0.1,0.1-0.3,0.1-0.5,0.1c-0.2,0-0.3,0-0.5,0s-0.3-0.1-0.4-0.1l-1.8-1.8
	c-0.2-0.2-0.3-0.4-0.5-0.6c-0.1-0.2-0.3-0.5-0.3-0.7c-0.1-0.3-0.1-0.5-0.1-0.7c0.1-0.3,0.1-0.5,0.3-0.7l7.9-7.9l1.8,1.8l-6.5,6.5
	c-0.1,0.1-0.1,0.3-0.1,0.4c0,0.1,0.1,0.2,0.1,0.3c0.3,0.3,0.5,0.3,0.7,0.1l5.6-5.6c0.1-0.1,0.3-0.3,0.6-0.3c0.3,0,0.5,0,0.7,0.1
	c0.3,0.1,0.5,0.2,0.7,0.4c0.3,0.1,0.5,0.3,0.7,0.5l0.9,0.9c0.2,0.2,0.3,0.3,0.5,0.6c0.2,0.2,0.3,0.4,0.4,0.7
	c0.1,0.2,0.1,0.5,0.1,0.7c0,0.3-0.1,0.5-0.4,0.7l-8.1,7.9L27.6,24.9z"/>
<path fill="#EF4538" d="M12.6,13.9l4.1,4.1l6.9-6.9c0.2-0.2,0.3-0.3,0.2-0.5c-0.1-0.1-0.1-0.3-0.3-0.5l-4.3-4.3
	c-0.2-0.2-0.4-0.3-0.5-0.3c-0.2-0.1-0.3,0-0.5,0.2L8,15.8l-3-3L17.2,0.7c0.2-0.2,0.5-0.3,0.9-0.5C18.3,0.1,18.7,0,19.1,0
	c0.4,0,0.8,0,1.1,0.1c0.3,0.1,0.7,0.2,0.8,0.4l7.8,7.8C29,8.4,29.1,8.7,29.2,9c0.1,0.3,0.1,0.7,0.1,1.1c0,0.4-0.1,0.8-0.2,1.1
	c-0.1,0.3-0.3,0.7-0.5,0.8L16.4,24.3l-7.2-7.2L12.6,13.9z"/>
<path fill="#EF4538" d="M7.8,18.7l-3.3,3.3l7.1,7.1l3.3-3.3L7.8,18.7z"/>
<path fill="#EF4538" d="M0.1,17.7l3.1,3.1l3.3-3.3l-3.1-3.1L0.1,17.7z M2.1,16.6v-0.3c0,0,0,0,0.1,0h0.3L2.1,16.6
	C2.2,16.6,2.1,16.6,2.1,16.6z M2.1,17c-0.1,0,0.1-0.2,0.1-0.2l0.5-0.5c0.1-0.1,0.1-0.1,0.1,0l0.5,0.4l-0.1,0.5l-0.1,0.1l-0.6,0.1
	L2.1,17z M2.4,18.8C2.4,18.8,2.3,18.8,2.4,18.8H2v-0.3L2.4,18.8z M2.7,18.7c-0.1,0.1-0.1,0.1-0.2,0L2,18.3c-0.1-0.1,0-0.1,0-0.2
	l0.5-0.5l0.6,0.1c0,0,0,0,0,0.1l0.1,0.5L2.7,18.7z M4.6,18.4v0.3H4.3L4.6,18.4C4.6,18.3,4.6,18.3,4.6,18.4z M4.5,18
	c0.1,0.1,0.1,0.1,0,0.2L4,18.7c-0.1,0.1-0.1,0.1-0.2,0l-0.4-0.5l0.1-0.5c0,0,0,0,0-0.1c0,0,0,0,0.1,0l0.5-0.1L4.5,18z M4.6,16.9
	l-0.5,0.5l-0.5-0.1H3.5l-0.1-0.1l-0.1-0.5l0.5-0.5C3.9,16.2,4,16.3,4,16.4l0.5,0.5C4.6,16.8,4.7,16.8,4.6,16.9z M4.7,16.2l-0.1,0.3
	c0,0,0.1-0.1-0.1,0.1l-0.3-0.3c0.1-0.1,0.1-0.1,0.1-0.1H4.7z"/>
<path fill="#FFFFFF" d="M53.4,2.1l1.7,8.2L56.3,2h3.1l-2,14.1l-4.2-0.1l-1.2-5.1l-0.7,5.2l-4.2-0.1L43.9,2.1L47.2,2l1.8,8.4L50.2,2
	L53.4,2.1z"/>
<path fill="#FFFFFF" d="M60.8,2.2L64,2.1l-0.1,14L60.8,16V2.2z"/>
<path fill="#FFFFFF" d="M68.9,10.4l0.1,5.6l-3.2-0.1L65.8,2.1l7.9-0.1l-0.1,3.6l-4.7-0.1v1.5L72.5,7l0.1,3.1L68.9,10.4z"/>
<path fill="#FFFFFF" d="M75.4,2.2l3.2-0.1l-0.1,14L75.4,16V2.2z"/>
<path fill="#FFFFFF" d="M51.6,33.7l-5.5,0.1l-2.3-2.3l-0.1-8.4l2.1-2.9l5.8-0.2l-0.1,3.6l-4.7,0.1l0.2,7l4.6-0.2V33.7z"/>
<path fill="#FFFFFF" d="M55.7,33.9l-2.3-2.3v-8.4l2.1-2.9l5.1-0.1l2.3,2.3l0.1,8.4l-2.1,2.9L55.7,33.9z M56.6,30.4l3.3-0.1l-0.2-6.8
	l-3.3,0.1L56.6,30.4z"/>
<path fill="#FFFFFF" d="M64.8,20.1l3.2-0.1l-0.1,14l-3.1-0.1L64.8,20.1z"/>
<path fill="#FFFFFF" d="M73,27.6L73,34l-3.2-0.1l-0.1-13.8l3.1-0.1l2.5,6.9v-6.8l3.2-0.1l-0.1,14l-3.1-0.1L73,27.6z"/>
</svg>
