<svg class="main-icon" xmlns="http://www.w3.org/2000/svg" width="37.2" height="36" viewBox="0 0 37.2 36"><path class="main-logo-black" d="M23.2,24.3c0.2-0.2,0.4-0.3,0.6-0.3s0.4,0,0.7,0.1c0.2,0.1,0.4,0.2,0.6,0.3c0.2,0.2,0.4,0.3,0.6,0.5l1.5,1.5c0.1,0.1,0.2,0.3,0.3,0.5s0.1,0.4,0.1,0.6s0,0.4-0.1,0.6s-0.2,0.4-0.3,0.5l-6.9,6.9c-0.1,0.1-0.3,0.2-0.5,0.3S19.4,36,19.1,36c-0.2,0-0.4,0-0.6-0.1s-0.3-0.1-0.5-0.2l-4.6-4.6c-0.1-0.1-0.2-0.3-0.2-0.5c-0.1-0.2-0.1-0.4-0.1-0.6s0.1-0.5,0.1-0.6c0.1-0.2,0.2-0.4,0.3-0.5l6.8-6.8c0.1-0.1,0.3-0.2,0.5-0.3c0.2-0.1,0.4-0.1,0.6-0.1s0.4,0,0.6,0.1s0.4,0.1,0.5,0.2l0.7,0.7l-7.1,7.1l3.1,3.1l4.9-4.9c0-0.1,0-0.1-0.1-0.2s-0.1-0.2-0.1-0.2c-0.2-0.2-0.5-0.3-0.8-0.1l-3.3,3.3l-1.6-1.6L23.2,24.3z"/><path class="main-logo-black" d="M27.5,24.9l6.5-6.5c0.1-0.1,0.1-0.2,0.1-0.3c0-0.1-0.1-0.2-0.2-0.3c-0.1-0.1-0.2-0.2-0.3-0.2s-0.2,0-0.4,0.1l-5.6,5.6c-0.1,0.1-0.3,0.1-0.4,0.2c-0.2,0.1-0.3,0.1-0.5,0.1s-0.3,0-0.5,0s-0.3-0.1-0.4-0.2L24,21.6c-0.2-0.2-0.3-0.4-0.5-0.6s-0.3-0.5-0.3-0.7c-0.1-0.2-0.1-0.5-0.1-0.7s0.2-0.5,0.3-0.6l7.9-7.9l1.8,1.8l-6.4,6.4c-0.1,0.2-0.1,0.3-0.1,0.3c0,0.1,0.1,0.2,0.2,0.3c0.2,0.2,0.5,0.3,0.7,0.1l5.6-5.6c0.2-0.2,0.3-0.2,0.6-0.3c0.2,0,0.5,0,0.7,0.1s0.5,0.2,0.7,0.4s0.5,0.3,0.6,0.5l0.9,0.9c0.2,0.2,0.3,0.3,0.5,0.6s0.3,0.4,0.4,0.6c0.1,0.2,0.1,0.5,0.1,0.7s-0.1,0.5-0.4,0.7l-8,8L27.5,24.9z"/><path class="main-logo-red" d="M12.5,13.9l4.1,4.1l6.9-6.9c0.2-0.1,0.2-0.3,0.2-0.4c0-0.2-0.1-0.3-0.3-0.5l-4.2-4.3c-0.2-0.2-0.3-0.3-0.5-0.3c-0.2-0.1-0.3,0-0.5,0.2L7.9,15.9l-3-3L17.1,0.7c0.2-0.2,0.5-0.3,0.8-0.4c0.4-0.1,0.7-0.2,1.1-0.2s0.8,0,1.1,0.1c0.3,0.1,0.6,0.2,0.8,0.4l7.8,7.7c0.2,0.2,0.3,0.5,0.4,0.8s0.1,0.7,0.1,1.1c0,0.4-0.1,0.8-0.2,1.1s-0.3,0.7-0.5,0.9L16.3,24.4l-7.1-7.1L12.5,13.9z"/><rect class="main-logo-red" x="7.3" y="19" transform="matrix(0.7071 -0.7071 0.7071 0.7071 -14.1322 13.8604)" width="4.7" height="10"/><path class="main-logo-red" d="M0,17.7l3.1,3.1l3.3-3.3l-3.1-3.1L0,17.7z M2.1,16.6v-0.3l0,0h0.3l0,0L2.1,16.6L2.1,16.6z M2,17.1c-0.1-0.1,0.1-0.2,0.1-0.2l0.5-0.5c0.1-0.1,0.1-0.1,0.2,0l0.4,0.4l-0.1,0.5l0,0L3,17.4l-0.6,0.1L2,17.1z M2.3,18.8L2.3,18.8H2l0,0v-0.3l0,0L2.3,18.8z M2.6,18.7c-0.1,0.1-0.1,0.1-0.2,0L2,18.3c-0.1,0-0.1-0.1,0-0.2l0.5-0.5H3l0,0l0,0v0.5L2.6,18.7z M4.5,18.4v0.3l0,0H4.2l0,0L4.5,18.4L4.5,18.4z M4.4,18c0.1,0.1,0.1,0.1,0,0.2l-0.5,0.5c-0.1,0.1-0.1,0.1-0.2,0l-0.4-0.4l0.1-0.5l0,0l0,0l0.5-0.1L4.4,18z M4.5,16.9L4,17.4l-0.5-0.1c0,0,0,0-0.1,0c0,0,0,0,0-0.1l-0.1-0.5l0.5-0.5c0.1-0.1,0.1,0.1,0.2,0.1l0.4,0.4C4.5,16.8,4.6,16.8,4.5,16.9z M4.6,16.2l-0.1,0.3c0,0,0.1-0.1-0.1,0.1l-0.3-0.3c0.1-0.1,0.1-0.1,0.1-0.1H4.6L4.6,16.2z"/></svg>