<svg class="main-logo" xmlns="http://www.w3.org/2000/svg" width="225" height="36" viewBox="0 0 836 134"><path class="main-logo-red" d="M177.1,96.5h-15.5V42.8h15.5V96.5z"/><path class="main-logo-red" d="M196.2,42.9c1.2,0.1,2.8,0.9,4.6,2.2c1.9,1.3,4.3,3.3,7.3,6s6.7,6.1,11,10.2c4.4,4.2,9.7,9.2,15.9,15V42.8h15.4v47c0,0.9-0.2,1.7-0.7,2.5c-0.5,0.8-1.1,1.5-1.9,2.1c-0.8,0.6-1.7,1.2-2.8,1.5c-1.1,0.4-2.2,0.6-3.3,0.6h-3c-0.3,0-0.5,0-0.5-0.1c-1.1-0.1-2.7-0.9-4.6-2.2c-2-1.4-4.5-3.4-7.6-6.1c-3.1-2.7-6.8-6.1-11.2-10.3s-9.6-9.1-15.5-14.9v33.6H184v-47c0-0.8,0.2-1.6,0.7-2.4c0.5-0.8,1.1-1.5,1.9-2.2c0.8-0.6,1.7-1.2,2.8-1.5c1.1-0.4,2.2-0.6,3.4-0.6h2.9C196,42.8,196.2,42.9,196.2,42.9z"/><path class="main-logo-red" d="M257.3,63.1h15.4v19h35.5V57.2h-50.9V42.8h57.8c1,0,2,0.2,3,0.7c1,0.5,2,1.2,2.8,2c0.8,0.8,1.5,1.7,2,2.8c0.5,1,0.7,2.1,0.7,3.1v36.4c0,1.1-0.2,2.1-0.7,3.1c-0.5,1-1.2,2-2,2.8c-0.8,0.8-1.7,1.5-2.8,2c-1,0.5-2,0.7-3,0.7h-57.8V63.1z"/><path class="main-logo-red" d="M391.4,43.6c1,0.5,2,1.2,2.8,2c0.8,0.8,1.5,1.7,2,2.8c0.5,1,0.7,2.1,0.7,3.1v36.4c0,1.1-0.2,2.1-0.7,3.1c-0.5,1-1.2,2-2,2.8c-0.8,0.8-1.7,1.5-2.8,2c-1,0.5-2,0.7-3,0.7H339c-1,0-2-0.2-3-0.7c-1-0.5-2-1.2-2.8-2c-0.8-0.8-1.5-1.7-2-2.8c-0.5-1-0.7-2.1-0.7-3.1V51.5c0-1.1,0.2-2.1,0.7-3.1c0.5-1,1.2-2,2-2.8c0.8-0.8,1.7-1.5,2.8-2c1-0.5,2-0.7,3-0.7h49.4C389.4,42.8,390.4,43.1,391.4,43.6z M345.8,57.2v24.9h35.8V57.2H345.8z"/><path class="main-logo-black" d="M429.1,76.2V63.1h32.5c1,0,2,0.2,3,0.7c1,0.5,2,1.2,2.8,2c0.8,0.8,1.5,1.7,2,2.8c0.5,1,0.7,2.1,0.7,3.1v16.1c0,1.1-0.2,2.1-0.7,3.1c-0.5,1-1.2,2-2,2.8c-0.8,0.8-1.7,1.5-2.8,2c-1,0.5-2,0.7-3,0.7h-49.2c-1,0-2-0.2-3-0.7c-1-0.5-2-1.2-2.8-2c-0.8-0.8-1.5-1.7-2-2.8c-0.5-1-0.7-2.1-0.7-3.1V51.5c0-1.1,0.2-2.1,0.7-3.1c0.5-1,1.2-2,2-2.8c0.8-0.8,1.7-1.5,2.8-2c1-0.5,2-0.7,3-0.7h57.8v14.4h-50.9v24.9h35.5v-5.9H429.1z"/><path class="main-logo-black" d="M491,96.5h-17.1l22-46c2.4-5.1,6.1-7.7,11-7.7h6.8c2.4,0,4.4,0.6,5.8,1.9c1.5,1.3,2.8,3.2,4,5.8l22,46h-17.1l-4.3-9h-28.9L491,96.5z M509.8,59.3l-8.2,15.5h16.5L509.8,59.3z"/><path class="main-logo-black" d="M550.4,96.5v-47c0-0.8,0.2-1.6,0.7-2.4c0.5-0.8,1.1-1.5,1.9-2.2c0.8-0.6,1.7-1.2,2.8-1.5c1.1-0.4,2.2-0.6,3.4-0.6h4.2c1.9,0.3,3.8,1,5.6,2.1c1.8,1.1,3.3,2.6,4.3,4.4l17.1,28.2l17.1-28.2c1.1-1.8,2.5-3.2,4.3-4.4c1.8-1.1,3.7-1.9,5.6-2.1h4.2c1.2,0,2.3,0.2,3.4,0.6c1.1,0.4,2,0.9,2.8,1.5c0.8,0.6,1.4,1.4,1.9,2.2c0.5,0.8,0.7,1.6,0.7,2.4v47h-15.4v-30c-1.7,3-3.4,5.8-5.1,8.4c-1.7,2.6-3.2,5-4.7,7.2c-1.5,2.2-2.8,4.1-4,5.8c-1.2,1.7-2.1,3-2.8,4.1c-1.4,2-2.7,3.2-4,3.7c-1.2,0.5-2.2,0.7-2.9,0.7h-2.3c-1.1,0-2.2-0.2-3.2-0.7c-1-0.5-2.2-1.7-3.6-3.7c-1.6-2.1-3.8-5.3-6.8-9.8c-3-4.4-6.2-9.7-9.7-15.7v30H550.4z"/><path class="main-logo-black" d="M642.6,95.8c-1-0.5-2-1.2-2.8-2c-0.8-0.8-1.5-1.7-2-2.8c-0.5-1-0.7-2.1-0.7-3.1V51.5c0-1.1,0.2-2.1,0.7-3.1c0.5-1,1.2-2,2-2.8c0.8-0.8,1.7-1.5,2.8-2c1-0.5,2-0.7,3-0.7h51.7v14.4h-44.8v5.9h44.7v13.1h-44.7v5.9h44.8v14.4h-51.7C644.7,96.5,643.7,96.3,642.6,95.8z"/><path class="main-logo-black" d="M751.1,63.1v-5.9h-47V42.8H758c1,0,2,0.2,3,0.7c1,0.5,2,1.2,2.8,2c0.8,0.8,1.5,1.7,2,2.8c0.5,1,0.7,2.1,0.7,3.1v16.1c0,1.1-0.2,2.1-0.7,3.1c-0.5,1-1.2,2-2,2.8c-0.8,0.8-1.7,1.5-2.8,2c-1,0.5-2,0.7-3,0.7h-4.4l14.7,20.3h-17.4l-15.7-20.3h-15.7v20.3h-15.4V63.1H751.1z"/><path class="main-logo-black" d="M781.8,76.2c-1,0-2-0.2-3-0.7c-1-0.5-2-1.2-2.8-2c-0.8-0.8-1.5-1.7-2-2.8c-0.5-1-0.7-2.1-0.7-3.1V51.5c0-1.1,0.2-2.1,0.7-3.1c0.5-1,1.2-2,2-2.8c0.8-0.8,1.7-1.5,2.8-2c1-0.5,2-0.7,3-0.7h56.7v14.4h-49.9v5.9h41.3c1,0,2,0.2,3,0.7c1,0.5,2,1.2,2.8,2c0.8,0.8,1.5,1.7,2,2.8c0.5,1,0.7,2.1,0.7,3.1v16.1c0,1.1-0.2,2.1-0.7,3.1c-0.5,1-1.2,2-2,2.8c-0.8,0.8-1.7,1.5-2.8,2c-1,0.5-2,0.7-3,0.7h-56.7V82.1h49.9v-5.9H781.8z"/><path class="main-logo-black" d="M86.7,90.6c0.7-0.7,1.5-1.1,2.3-1.1c0.8-0.1,1.6,0.1,2.5,0.4c0.8,0.3,1.6,0.8,2.4,1.3c0.8,0.6,1.5,1.2,2.1,1.8l5.7,5.7c0.4,0.4,0.8,1,1,1.7c0.2,0.7,0.3,1.5,0.3,2.3c0,0.8-0.1,1.6-0.4,2.4c-0.2,0.8-0.6,1.4-1.1,1.9l-25.6,25.6c-0.4,0.4-1.1,0.8-1.9,1c-0.8,0.2-1.6,0.4-2.4,0.4c-0.8,0-1.6,0-2.4-0.2c-0.8-0.2-1.3-0.5-1.7-0.9l-17-17c-0.4-0.4-0.7-1-0.9-1.7c-0.2-0.8-0.2-1.6-0.2-2.4c0-0.8,0.2-1.7,0.4-2.4c0.2-0.8,0.6-1.4,1-1.9l25.4-25.4c0.4-0.4,1-0.8,1.8-1c0.8-0.2,1.6-0.4,2.4-0.4c0.8,0,1.6,0,2.4,0.2c0.8,0.2,1.4,0.5,1.8,0.9l2.5,2.5l-26.5,26.5l11.7,11.7l18.3-18.3c0-0.2,0-0.4-0.2-0.7c-0.2-0.3-0.3-0.6-0.5-0.9c-0.8-0.8-1.8-1-2.8-0.4l-12.4,12.4l-6-6L86.7,90.6z"/><path class="main-logo-black" d="M102.6,92.6l24.2-24.2c0.3-0.5,0.4-0.9,0.3-1.3c-0.1-0.4-0.3-0.8-0.6-1.2c-0.4-0.4-0.8-0.6-1.2-0.7c-0.4-0.1-0.9,0-1.4,0.3L103,86.4c-0.5,0.3-1,0.5-1.6,0.7c-0.6,0.2-1.2,0.4-1.8,0.5c-0.6,0.1-1.2,0.1-1.7,0c-0.6-0.1-1-0.3-1.4-0.6l-6.6-6.6c-0.7-0.7-1.3-1.4-1.9-2.3c-0.6-0.8-1-1.7-1.3-2.6c-0.3-0.9-0.4-1.7-0.2-2.6c0.1-0.9,0.6-1.7,1.3-2.4l29.5-29.5l6.6,6.6L99.6,71.9c-0.3,0.6-0.4,1.1-0.4,1.3c0,0.3,0.2,0.7,0.6,1.2c0.9,0.9,1.7,1,2.6,0.3l21-21c0.6-0.6,1.3-0.9,2.2-1c0.9-0.1,1.7,0.1,2.6,0.4c0.9,0.3,1.8,0.8,2.7,1.4c0.9,0.6,1.7,1.2,2.3,1.9l3.4,3.4c0.6,0.6,1.3,1.3,1.9,2.1c0.6,0.8,1.1,1.5,1.5,2.4c0.3,0.8,0.5,1.7,0.4,2.5c-0.1,0.9-0.5,1.7-1.4,2.5l-29.8,29.8L102.6,92.6z"/><path class="main-logo-red" d="M46.8,51.7l15.4,15.4l25.5-25.5c0.7-0.7,1-1.3,0.8-1.9c-0.1-0.6-0.5-1.2-1.2-1.8L71.5,21.9c-0.7-0.7-1.3-1.1-2-1.3c-0.6-0.2-1.3,0-2,0.7L29.7,59.1L18.5,47.9L63.9,2.5c0.7-0.7,1.7-1.2,3.1-1.6c1.4-0.4,2.7-0.6,4.2-0.7c1.4-0.1,2.8,0,4.1,0.3c1.3,0.3,2.3,0.7,3,1.4l29,29c0.7,0.7,1.1,1.7,1.4,3c0.3,1.3,0.4,2.7,0.3,4.2c0,1.5-0.3,2.9-0.7,4.2c-0.4,1.3-1,2.3-1.7,3L61.1,90.7L34.5,64.1L46.8,51.7z"/><rect x="27.4" y="70.6" transform="matrix(0.7071 -0.7071 0.7071 0.7071 -52.5341 51.7299)" class="main-logo-red" width="17.5" height="37.4"/><path class="main-logo-red" d="M0.4,65.9l11.4,11.4l12.4-12.4L12.8,53.5L0.4,65.9z M8,61.9l0-1.1c0-0.1,0.1-0.1,0.1-0.1l1,0c0,0,0.1,0.1,0.1,0.1L8.1,62C8.1,62,8,61.9,8,61.9z M7.8,63.6c-0.2-0.2,0.2-0.8,0.4-0.9l1.8-1.8c0.2-0.2,0.4-0.2,0.6,0l1.6,1.6l-0.3,1.9c0,0,0,0.1,0,0.1c0,0-0.3,0.2-0.3,0.3l-2.1,0.5L7.8,63.6z M8.8,70C8.8,70.1,8.8,70.1,8.8,70l-1.1,0.1c-0.1,0-0.1,0-0.1-0.1l0.1-1c0,0,0-0.1,0-0.1L8.8,70z M10.2,69.7c-0.2,0.2-0.5,0.2-0.6,0l-1.6-1.6C7.7,68,7.8,67.7,8,67.5l1.8-1.7l1.9,0.1c0.1,0,0.1,0,0.1,0.1c0,0,0.1,0.1,0.1,0.1l0.1,1.9L10.2,69.7z M17.1,68.4l-0.1,1c0,0.1-0.1,0.1-0.1,0.1l-1,0c0,0-0.1,0-0.1,0L17.1,68.4C17.1,68.4,17.1,68.4,17.1,68.4z M16.9,67c0.2,0.2,0.2,0.5,0,0.6l-1.8,1.8c-0.2,0.2-0.5,0.2-0.6,0l-1.6-1.6l0.3-1.9c0,0,0-0.1,0.1-0.1c0,0,0.1-0.1,0.1-0.1l1.9-0.3L16.9,67z M17.2,62.9l-1.7,1.7l-2-0.2c0,0-0.1-0.1-0.2-0.1c0,0-0.1-0.1-0.1-0.2l-0.3-2l1.7-1.7c0.2-0.2,0.4,0.3,0.6,0.5l1.6,1.6C17.1,62.6,17.4,62.7,17.2,62.9z M17.5,60.3l-0.2,1.2c0,0,0.3-0.2-0.2,0.2L16,60.6c0.5-0.5,0.2-0.2,0.2-0.2l1.2-0.2C17.5,60.2,17.5,60.2,17.5,60.3z"/></svg>